# xmcd
#
# Track frame offsets:
#	150
#	17941
#	36324
#	56830
#	86257
#	103274
#	121225
#	142526
#	170598
#	186703
#	201018
#	217715
#	234314
#	263689
#
# Disc length: 4010 seconds
#
# Revision: 2
# Processed by: cddbd v1.5.2PL0 Copyright (c) Steve Scherf et al.
# Submitted via: EZCDAudioConverter 7.1.1.1
#
DISCID=be0fa80e
DTITLE=The Tavares - Tavares - Sky-High! (+6)
DYEAR=2011
DGENRE=blues
TTITLE0=Mighty Power Of Love
TTITLE1=Ridin' High
TTITLE2=To The Other Man
TTITLE3=Heaven Must Be Missing An Angel (Original 12" Mix)
TTITLE4=Being With You
TTITLE5=Wonderful
TTITLE6=Guiding Guitar
TTITLE7=Don't Take Away The Music
TTITLE8=Heaven Must Be Missing An Angel (Part 1 US Single)
TTITLE9=Heaven Must Be Missing An Angel (Part 2 US Single B-Side)
TTITLE10=Heaven Must Be Missing An Angel (Ben Liebrand UK 7" Remix)
TTITLE11=Don't Take Away The Music (Ben Liebrand UK 7" Remix)
TTITLE12=Heaven Must Be Missing An Angel (Original 12" Mix)
TTITLE13=Don't Take Away The Music (Ben Liebrand Hands Off The Music Mix)
EXTD=
EXTT0=
EXTT1=
EXTT2=
EXTT3=
EXTT4=
EXTT5=
EXTT6=
EXTT7=
EXTT8=
EXTT9=
EXTT10=
EXTT11=
EXTT12=
EXTT13=
PLAYORDER=
